<svg width="256" height="256" viewBox="0 0 64 64" fill="none" xmlns="http://www.w3.org/2000/svg">
  <path d="M15 15V51H47V45H21V15H15Z" fill="#55616C" stroke="#333333" stroke-width="1.75" stroke-linejoin="round"/>
  <path d="M19 21V47H43" stroke="#97A3AD" stroke-width="1.75" stroke-linecap="round" stroke-linejoin="round" opacity="0.95"/>
  <path d="M21 18H15" stroke="#C4973D" stroke-width="2.5" stroke-linecap="round"/>
  <path d="M21 24H15" stroke="#C4973D" stroke-width="2.5" stroke-linecap="round"/>
  <path d="M21 45H15" stroke="#C4973D" stroke-width="2.5" stroke-linecap="round"/>
  <path d="M36 51V45" stroke="#C4973D" stroke-width="2.5" stroke-linecap="round"/>
  <path d="M42 51V45" stroke="#C4973D" stroke-width="2.5" stroke-linecap="round"/>
  <path d="M17 18L46 47" stroke="#333333" stroke-width="9.5" stroke-linecap="round"/>
  <path d="M17 18L46 47" stroke="#C4973D" stroke-width="6.5" stroke-linecap="round"/>
  <path d="M19.5 20.5L43.5 44.5" stroke="#E2B274" stroke-width="1.4" stroke-linecap="round" opacity="0.9"/>
  <path d="M33 18H44" stroke="#333333" stroke-width="6.5" stroke-linecap="round"/>
  <path d="M43.5 15V21" stroke="#333333" stroke-width="6" stroke-linecap="round"/>
  <path d="M33.5 18C35.5 14.2 39.7 13.2 43.5 15" stroke="#333333" stroke-width="5.5" stroke-linecap="round" stroke-linejoin="round"/>
  <path d="M33.5 18C35 21.4 33.9 24.4 29.7 26.8" stroke="#333333" stroke-width="5.5" stroke-linecap="round" stroke-linejoin="round"/>
  <path d="M33 18L28.5 23.2" stroke="#333333" stroke-width="5.5" stroke-linecap="round"/>
</svg>
