<svg width="256" height="256" viewBox="0 0 64 64" fill="none" xmlns="http://www.w3.org/2000/svg">
  <path d="M16 14V50H46" stroke="#C4973D" stroke-width="4.5" stroke-linecap="round" stroke-linejoin="round"/>
  <path d="M16 50H46" stroke="#C4973D" stroke-width="4.5" stroke-linecap="round" stroke-linejoin="round"/>
  <path d="M22 20H16" stroke="#C4973D" stroke-width="3" stroke-linecap="round"/>
  <path d="M22 26H16" stroke="#C4973D" stroke-width="3" stroke-linecap="round"/>
  <path d="M22 44H16" stroke="#C4973D" stroke-width="3" stroke-linecap="round"/>
  <path d="M40 50V44" stroke="#C4973D" stroke-width="3" stroke-linecap="round"/>
  <path d="M34 50V44" stroke="#C4973D" stroke-width="3" stroke-linecap="round"/>
  <path d="M24 44L34 30" stroke="#333333" stroke-width="4.5" stroke-linecap="round"/>
  <path d="M24 44L20 48" stroke="#333333" stroke-width="4.5" stroke-linecap="round"/>
  <path d="M27 18C25.343 18 24 19.343 24 21V23C24 24.657 25.343 26 27 26H32.3L28.7 29.6C28.1 30.2 28.1 31.15 28.7 31.75C29.3 32.35 30.25 32.35 30.85 31.75L36.6 26H39L44.6 31.6C45.2 32.2 46.15 32.2 46.75 31.6C47.35 31 47.35 30.05 46.75 29.45L43.3 26H44.5C46.433 26 48 24.433 48 22.5C48 20.567 46.433 19 44.5 19H39.7L37.8 17.1C37.2 16.5 36.25 16.5 35.65 17.1L33.75 19H27Z" fill="#333333"/>
</svg>
