<svg width="420" height="560" viewBox="0 0 420 560" fill="none" xmlns="http://www.w3.org/2000/svg">
  <rect width="420" height="560" fill="#F4F1EB"/>
  <path d="M78 90V274H262V252H112V90H78Z" fill="#55616C" stroke="#333333" stroke-width="6" stroke-linejoin="round"/>
  <path d="M94 112V256H244" stroke="#97A3AD" stroke-width="6" stroke-linecap="round" stroke-linejoin="round" opacity="0.95"/>
  <path d="M108 102H78" stroke="#C4973D" stroke-width="8" stroke-linecap="round"/>
  <path d="M108 130H78" stroke="#C4973D" stroke-width="8" stroke-linecap="round"/>
  <path d="M108 248H78" stroke="#C4973D" stroke-width="8" stroke-linecap="round"/>
  <path d="M200 274V244" stroke="#C4973D" stroke-width="8" stroke-linecap="round"/>
  <path d="M228 274V244" stroke="#C4973D" stroke-width="8" stroke-linecap="round"/>
  <path d="M92 106L264 278" stroke="#333333" stroke-width="30" stroke-linecap="round"/>
  <path d="M92 106L264 278" stroke="#C4973D" stroke-width="21" stroke-linecap="round"/>
  <path d="M106 120L250 264" stroke="#E2B274" stroke-width="4.5" stroke-linecap="round" opacity="0.9"/>
  <path d="M188 106H254" stroke="#333333" stroke-width="20" stroke-linecap="round"/>
  <path d="M252 88V124" stroke="#333333" stroke-width="18" stroke-linecap="round"/>
  <path d="M190 106C202 84 227 78 252 88" stroke="#333333" stroke-width="17" stroke-linecap="round" stroke-linejoin="round"/>
  <path d="M190 106C198 126 192 144 168 158" stroke="#333333" stroke-width="17" stroke-linecap="round" stroke-linejoin="round"/>
  <path d="M186 106L160 136" stroke="#333333" stroke-width="17" stroke-linecap="round"/>
  <text x="210" y="396" text-anchor="middle" fill="#22303B" font-family="Arial, Helvetica, sans-serif" font-size="72" font-weight="800" letter-spacing="2.5">
    KRISHAN
  </text>
  <text x="210" y="458" text-anchor="middle" fill="#22303B" font-family="Arial, Helvetica, sans-serif" font-size="42" font-weight="700" letter-spacing="12">
    PROJECTS
  </text>
</svg>
